<?xml version="1.0" standalone="no"?>
<!DOCTYPE svg PUBLIC "-//W3C//DTD SVG 20010904//EN"
 "http://www.w3.org/TR/2001/REC-SVG-20010904/DTD/svg10.dtd">
<svg version="1.0" xmlns="http://www.w3.org/2000/svg"
 width="300.000000pt" height="174.000000pt" viewBox="0 0 300.000000 174.000000"
 preserveAspectRatio="xMidYMid meet">
<metadata>
Created by potrace 1.10, written by Peter Selinger 2001-2011
</metadata>
<g transform="translate(0.000000,174.000000) scale(0.050000,-0.050000)"
fill="#0300ad" stroke="none">
<path d="M744 2436 c-46 -46 -31 -371 18 -397 44 -23 169 -10 187 19 33 53 34
336 2 368 -39 39 -171 46 -207 10z"/>
<path d="M1390 2387 c-71 -65 -194 -181 -565 -533 l-105 -100 0 -243 c0 -276
7 -291 133 -291 118 0 135 38 121 271 l-10 183 87 73 c91 76 109 85 109 54 0
-17 110 -182 324 -486 l66 -94 681 -1 c795 0 729 -22 729 241 l0 193 147 -2
147 -1 110 -171 c61 -93 121 -190 133 -214 28 -53 420 -68 462 -17 15 17 20
142 16 364 l-5 337 -110 0 -110 0 -10 -300 -10 -300 -101 150 c-55 83 -107
161 -115 173 -8 14 14 40 56 64 82 49 143 141 160 244 l13 73 91 -17 c133 -25
146 -6 146 201 0 194 -14 222 -112 222 -121 0 -128 -10 -128 -177 l-1 -153
-36 80 c-90 198 -228 250 -659 250 -324 -1 -328 -2 -320 -132 l6 -98 333 -10
c372 -11 437 -35 437 -162 0 -150 -40 -166 -440 -178 l-330 -10 -10 -198 -10
-198 -119 288 c-289 703 -280 687 -398 694 -106 7 -143 -13 -161 -87 -7 -27
-40 -109 -74 -184 -34 -74 -83 -184 -109 -245 -25 -60 -69 -161 -96 -224 -64
-147 -45 -181 98 -172 l99 6 47 120 c26 66 67 165 92 220 25 55 51 125 58 155
8 30 21 55 30 55 18 0 24 -14 165 -360 47 -115 93 -219 102 -229 38 -45 -5
-51 -379 -50 l-395 0 -90 135 c-49 74 -132 191 -184 260 l-94 127 134 125 c74
69 170 158 214 199 105 98 84 141 -72 148 -100 5 -114 -1 -188 -68z"/>
<path d="M4041 2422 c-27 -50 525 -799 589 -799 28 -1 87 63 195 209 l155 211
0 -389 c0 -439 0 -441 144 -430 l86 6 0 610 0 610 -103 6 c-67 4 -111 -3 -126
-20 -29 -35 -109 -142 -241 -324 -60 -84 -111 -152 -112 -152 -1 0 -77 101
-169 225 -91 124 -180 236 -197 250 -48 40 -197 32 -221 -13z"/>
<path d="M4039 1616 c-14 -354 -3 -396 97 -396 120 1 126 12 120 222 l-6 188
-105 6 c-76 4 -105 -1 -106 -20z"/>
</g>
</svg>
